<svg xmlns="http://www.w3.org/2000/svg" width="511" height="337" viewBox="0 0 511 337"><defs><linearGradient id="lzyta" x1="138" x2="145" y1="275.5" y2="275.5" gradientUnits="userSpaceOnUse"><stop offset="0" stop-color="#183866"/><stop offset="1" stop-color="#1a7fc1"/></linearGradient><linearGradient id="lzytb" x1="155.99" x2="160" y1="277.5" y2="277.5" gradientUnits="userSpaceOnUse"><stop offset="0"/><stop offset=".99" stop-opacity="0"/></linearGradient><linearGradient id="lzytc" x1="188.41" x2="208.56" y1="94.01" y2="102.8" gradientUnits="userSpaceOnUse"><stop offset="0"/><stop offset=".99" stop-opacity="0"/></linearGradient><linearGradient id="lzytd" x1="195.63" x2="165.33" y1="115.06" y2="106.74" gradientUnits="userSpaceOnUse"><stop offset="0"/><stop offset=".99" stop-opacity="0"/></linearGradient><linearGradient id="lzyte" x1="202.12" x2="138.49" y1="83.35" y2="61.51" gradientUnits="userSpaceOnUse"><stop offset="0"/><stop offset=".99" stop-opacity="0"/></linearGradient><linearGradient id="lzytf" x1="201.61" x2="199.63" y1="112.15" y2="111.52" gradientUnits="userSpaceOnUse"><stop offset="0"/><stop offset=".99" stop-opacity="0"/></linearGradient><linearGradient id="lzytg" x1="180.45" x2="160.97" y1="83.68" y2="89.06" gradientUnits="userSpaceOnUse"><stop offset="0"/><stop offset=".99" stop-opacity="0"/></linearGradient><linearGradient id="lzyth" x1="337.58" x2="-7.69" y1="111.44" y2="94.81" gradientUnits="userSpaceOnUse"><stop offset="0"/><stop offset="1" stop-opacity="0"/></linearGradient><linearGradient id="lzyti" x1="144.22" x2="322.22" y1="166.01" y2="166.01" gradientUnits="userSpaceOnUse"><stop offset="0" stop-color="#183866"/><stop offset="1" stop-color="#1a7fc1"/></linearGradient><linearGradient id="lzytj" x1="205.23" x2="223.86" y1="165.63" y2="237.2" gradientUnits="userSpaceOnUse"><stop offset="0"/><stop offset=".99" stop-opacity="0"/></linearGradient><linearGradient id="lzytk" x1="174.48" x2="238.21" y1="177.32" y2="197.71" gradientUnits="userSpaceOnUse"><stop offset="0"/><stop offset=".99" stop-opacity="0"/></linearGradient><linearGradient id="lzytl" x1="173.59" x2="172" y1="192.53" y2="204.79" gradientUnits="userSpaceOnUse"><stop offset="0"/><stop offset=".99" stop-opacity="0"/></linearGradient><linearGradient id="lzytm" x1="84.91" x2="54.73" y1="49.88" y2="48.69" gradientUnits="userSpaceOnUse"><stop offset="0"/><stop offset=".99" stop-opacity="0"/></linearGradient><linearGradient id="lzytn" x1="89.17" x2="64.07" y1="65.77" y2="64.89" gradientUnits="userSpaceOnUse"><stop offset="0"/><stop offset=".99" stop-opacity="0"/></linearGradient><linearGradient id="lzyto" x1="40.07" x2="27.38" y1="268.02" y2="329.84" gradientUnits="userSpaceOnUse"><stop offset="0"/><stop offset=".99" stop-opacity="0"/></linearGradient><linearGradient id="lzytp" x1="62.72" x2="59.53" y1="77.44" y2="90.87" gradientUnits="userSpaceOnUse"><stop offset="0"/><stop offset=".99" stop-opacity="0"/></linearGradient><linearGradient id="lzytq" x1="150.99" x2="179" y1="97.5" y2="97.5" gradientUnits="userSpaceOnUse"><stop offset="0" stop-color="#ecc4d7"/><stop offset=".42" stop-color="#efd4d1"/><stop offset="1" stop-color="#f2eac9"/></linearGradient><linearGradient id="lzytr" x1="182.75" x2="208.75" y1="167.41" y2="167.41" gradientUnits="userSpaceOnUse"><stop offset="0" stop-color="#ecc4d7"/><stop offset=".42" stop-color="#efd4d1"/><stop offset="1" stop-color="#f2eac9"/></linearGradient><linearGradient id="lzyts" x1="218.86" x2="238.86" y1="173.23" y2="173.23" gradientUnits="userSpaceOnUse"><stop offset="0" stop-color="#ecc4d7"/><stop offset=".42" stop-color="#efd4d1"/><stop offset="1" stop-color="#f2eac9"/></linearGradient><linearGradient id="lzytt" x1="354.62" x2="243.5" y1="194.41" y2="268.15" gradientUnits="userSpaceOnUse"><stop offset="0" stop-color="#362958" stop-opacity=".5"/><stop offset="1" stop-color="#34313d" stop-opacity="0"/></linearGradient><linearGradient id="lzytu" x1="217.91" x2="216.74" y1="-63.25" y2="-63.68" gradientUnits="userSpaceOnUse"><stop offset="0"/><stop offset=".99" stop-opacity="0"/></linearGradient></defs><g><g><path fill="#eff1f7" d="M406.192 64.473c-14.661-15.65-26.011-34.334-43.535-47.106C335.13-2.737 295.516-4.698 263.33 7.932c-32.186 12.63-57.258 38.087-73.784 66.913-8.693 15.166-15.521 31.71-28.26 44.103-10.768 10.471-24.92 17.152-38.34 24.428-21.635 11.7-42.47 25.836-56.471 45.233-14 19.397-20.26 44.873-11.31 66.733 6.035 14.75 18.191 26.487 30.645 37.113 14.655 12.493 30.407 24.192 48.586 31.635 22.76 9.262 48.024 11.253 72.8 12.196a996.403 996.403 0 0 0 131.65-3.722c35.815-3.387 72.714-9.168 102.679-27.883 41.975-26.208 63.617-74.226 68.489-121.314 1.983-18.832 1.48-38.403-6.267-55.877-18.528-41.796-68.522-32.02-97.555-63.017z"/></g><g><g><path fill="#3f3d56" d="M120.666 152.226s-11.153-1.993-14.277 5.862c-3.125 7.854 0 34.98 0 34.98L148 223z"/></g><g><path fill="#2bd0d0" d="M173.717 272.909l-16.8 4.905c-2.442.707-5.002-.666-5.729-3.07-.716-2.407.676-4.932 3.114-5.648l16.777-4.91c2.44-.707 5 .663 5.728 3.065.725 2.403-.657 4.932-3.09 5.658z"/></g><g><path fill="#25233a" d="M172.5 290a7.5 7.5 0 1 0 0-15 7.5 7.5 0 0 0 0 15z"/></g><g><path fill="#3f3d56" d="M171.5 288a3.5 3.5 0 1 0 0-7 3.5 3.5 0 0 0 0 7z"/></g><g><path fill="#25233a" d="M142.5 283a7.5 7.5 0 1 0 0-15 7.5 7.5 0 0 0 0 15z"/></g><g><path fill="url(#lzyta)" d="M145 275.5a3.5 3.5 0 1 1-7 0 3.5 3.5 0 0 1 7 0z"/></g><g><path fill="#25233a" d="M140.5 293a7.5 7.5 0 1 0 0-15 7.5 7.5 0 0 0 0 15z"/></g><g><path fill="#3f3d56" d="M146 285.5a3.5 3.5 0 1 1-7 0 3.5 3.5 0 0 1 7 0z"/></g><g><path fill="#2bd0d0" d="M174.682 279.913l-34.122-6.989c-2.402-.499-3.954-2.874-3.473-5.312.492-2.435 2.83-4.01 5.231-3.524l34.122 6.975c2.402.499 3.954 2.874 3.473 5.312-.486 2.44-2.825 4.022-5.231 3.538z"/></g><g><path fill="#2bd0d0" d="M154 225h9v40.227c0 2.636-2.014 4.773-4.498 4.773-2.484 0-4.498-2.137-4.498-4.773V225z"/></g><g><path fill="#2bd0d0" d="M156.707 276.896l-16.789 4.917c-2.441.71-5.004-.664-5.73-3.072-.716-2.408.675-4.934 3.112-5.651l16.789-4.904c2.438-.707 4.997.664 5.725 3.067.71 2.404-.677 4.924-3.107 5.643z"/></g><g><path fill="url(#lzytb)" d="M160 277.26l-2.083.551a5.789 5.789 0 0 1-1.917.172l.87-.228a5.333 5.333 0 0 0 1.672-.755z"/></g><g><path fill="url(#lzytc)" d="M177 267.288c0 .99-.352 1.948-.995 2.712L162 267.232c.352-.469.607-1.001.749-1.567l8.627-2.496a4.494 4.494 0 0 1 3.35.368 4.324 4.324 0 0 1 2.102 2.576c.112.382.17.778.172 1.175z"/></g><g opacity=".31"><path fill="url(#lzytd)" d="M153.147 266.382a3.909 3.909 0 0 1-.147-1.062V226h3.962v42.376c-.04.208-.026.42.038.624a6.143 6.143 0 0 0-1.896-.343c-.461-.027-.924-.027-1.385 0l.284-.067c.174-.027-.627-1.405-.856-2.208z"/></g><g opacity=".31"><path fill="url(#lzyte)" d="M177.522 279.035a4.307 4.307 0 0 1-2.13.562c-.3 0-.598-.031-.893-.091l-15.055-3.11-1.254-.257c-.429.337-.915.59-1.433.745l-.746.224-15.47 4.705c-2.36.711-4.839-.666-5.541-3.08a3.747 3.747 0 0 0 4.853.284c1.889-1.338 9.407-3.348 13.667-4.417 2.013-.492 3.553-2.152 3.929-4.235.01-.122.028-.244.053-.365.71.786 2.014 1.667 4.371 2.416 5.804 1.828 15.23 3.038 15.23 3.038s1.7 1.709.42 3.581z"/></g><g><path fill="url(#lzytf)" d="M179 278a3.812 3.812 0 0 1-1 1"/></g><g><path fill="url(#lzytg)" d="M153.866 266.464c.185.81.576 1.557 1.134 2.166-.14.028-.283.064-.427.105L140.392 273c-2.18-.563-3.617-2.676-3.363-4.947s2.121-4.002 4.37-4.053c.303 0 .604.031.9.091z"/></g><g><path fill="#503164" d="M175 75.825s-.186-14.066-11.469-12.853c-11.282 1.213-10.417-3.444-15.237-2.933-4.819.512-10.417 5.264-8.81 11.133 1.609 5.87-4.253 7.183-8.103 11.636-3.85 4.453.906 8.096 7.392 12.45 6.487 4.353-.403 3.226 3.443 10.11 3.845 6.883 16.863-1.91 16.863-1.91z"/></g><g><path fill="#2bd0d0" d="M82.84 309.73l7.95.27v-63.612s.4-16.45 15.898-18.1c15.497-1.65 156.044-22.03 156.044-22.03s5.57-.591 8.779 10.11c3.208 10.703 6.331 52.785 6.331 52.785l43.14 5.82s1.138-74.337-14.44-78.44c-15.579-4.102-219.306 16.802-219.306 16.802s-15.11 78.953-4.397 96.395z"/></g><g opacity=".2"><path fill="url(#lzyth)" d="M82.84 309.73l7.95.27v-63.612s.4-16.45 15.898-18.1c15.497-1.65 156.044-22.03 156.044-22.03s5.57-.591 8.779 10.11c3.208 10.703 6.331 52.785 6.331 52.785l43.14 5.82s1.138-74.337-14.44-78.44c-15.579-4.102-219.306 16.802-219.306 16.802s-15.11 78.953-4.397 96.395z"/></g><g><path fill="#2bd0d0" d="M42 220.479s3.898-21.588 31.312-27.246l193.517-22.191s18.998-.789 27.689 4.478c8.69 5.266 21.095 9.631 26.18 33.462 5.087 23.831 6.302 64.542 6.302 64.542l-4.811.748s-7.022-73.719-14.461-78.386c-7.44-4.667-208.595 23.966-208.595 23.966s-13.952 2.78-15.167 23.476c-1.216 20.695 0 65.672 0 65.672L42 292.044z"/></g><g opacity=".19"><path fill="url(#lzyti)" d="M241.579 179.918c-10.03-1.281-20.14-2.21-30.246-1.834-7.595.292-15.14 1.326-22.673 2.355l-66.427 9.107c-1.127.155-2.412.406-2.975 1.379-1.082 1.855 1.46 3.685 3.52 4.392 22.087 7.59 45.684 15.279 68.42 9.866 10.394-2.474 20.05-7.613 30.593-9.398 10.543-1.785 21.365-.141 31.886-1.825 9.89-1.582 19.306-6.075 29.33-6.12 3.075 0 6.239.39 9.155-.565 2.917-.955 5.495-3.87 4.688-6.778-9.412-.323-19.977-2.028-29.209-.177-9.136 1.83-16.912-.402-26.062-.402z"/></g><g><path fill="#2bd0d0" d="M181 190.587l.384 1.41s11.38 6.781 11.31 7c-.072.218 47.206-10.827 47.206-10.827L241 185z"/></g><g><path fill="url(#lzytj)" d="M181 190.587l.384 1.41s11.38 6.781 11.31 7c-.072.218 47.206-10.827 47.206-10.827L241 185z"/></g><g><path fill="#2bd0d0" d="M182 191.112L224.345 182 242 185.446 193.893 197 182 191.112z"/></g><g><path fill="url(#lzytk)" d="M182 191.112L224.345 182 242 185.446 193.893 197 182 191.112z"/></g><g><path fill="#2bd0d0" d="M168.221 198.656l9.638.341s2.448.152 3.08-1.81c.634-1.964-3.926-6.107-4.415-6.186-.488-.078-13.172 3.48-11.344 7.038z"/></g><g><path fill="url(#lzytl)" d="M168.221 198.656l9.638.341s2.448.152 3.08-1.81c.634-1.964-3.926-6.107-4.415-6.186-.488-.078-13.172 3.48-11.344 7.038z"/></g><g><path fill="#2bd0d0" d="M54 296.731l-4.8 15.007c-13.921 5.09-25.758 0-25.758 0L20 296s17.364 5.926 34 .731z"/></g><g><path fill="url(#lzytm)" d="M54 296.731l-4.8 15.007c-13.921 5.09-25.758 0-25.758 0L20 296s17.364 5.926 34 .731z"/></g><g><path fill="#2bd0d0" d="M59 283l-1.546 11.787-3.917 2.092c-16.685 5.162-34.127-.722-34.127-.722l-3.007-2.284L15 283z"/></g><g><path fill="url(#lzytn)" d="M59 283l-1.546 11.787-3.917 2.092c-16.685 5.162-34.127-.722-34.127-.722l-3.007-2.284L15 283z"/></g><g><path fill="#2bd0d0" d="M37 287c12.15 0 22-1.79 22-4s-9.85-4-22-4-22 1.79-22 4 9.85 4 22 4z"/></g><g><path fill="url(#lzyto)" d="M37 287c12.15 0 22-1.79 22-4s-9.85-4-22-4-22 1.79-22 4 9.85 4 22 4z"/></g><g><path fill="#2bd0d0" d="M27.162 194.91c-2.181-1.03-4.525-1.808-6.411-3.313-3.8-3.06-4.764-8.331-5.954-13.06-1.19-4.727-3.493-9.926-8.185-11.282-1.755-.501-3.814-.303-5.148.945-1.407 1.315-1.692 3.476-1.308 5.384.385 1.907 1.321 3.616 2.045 5.424 1.69 4.2 2.205 8.78 1.489 13.249-.593 3.666-2.01 7.381-1.1 10.975 1.543 6.098 9.23 9.673 9.442 15.956.145 4.24-3.347 8.164-2.556 12.336.584 3.087 3.43 5.497 3.583 8.634.172 3.557-3.194 6.568-3.03 10.125.162 3.557 3.718 5.935 6.04 8.733a14.534 14.534 0 0 1 3.306 8.295c.123 1.898-.122 3.865.498 5.664.452 1.315 1.357 2.431 2.059 3.616.773 1.279 1.357 2.662 2.289 3.847a9.425 9.425 0 0 0 10.089 3.164c.72-4.728.09-9.552.29-14.33.393-9.257 3.9-18.587 1.655-27.573-.823-3.295-2.406-6.423-2.687-9.804-.249-3.02.556-6.012 1.117-8.991 1.159-6.152 1.14-12.512.666-18.732-.376-4.936-3.85-7.21-8.19-9.262z"/></g><g><path fill="#2bd0d0" d="M40.227 219.179c-.036 4.123.894 8.386-.412 12.302-.987 2.967-3.16 5.397-4.282 8.314-2.588 6.734.894 14.285.184 21.475-.296 2.962-1.301 5.807-1.936 8.716a35.264 35.264 0 0 0-.572 11.213 2.831 2.831 0 0 0 2.235 2.954A34.583 34.583 0 0 0 42.216 286a18.304 18.304 0 0 1 2.315-12.645c3.545-5.871 10.433-9.827 11.716-16.57.867-4.566-1.154-9.2-1.01-13.847a15 15 0 0 1 3.012-8.535c1.667-2.195 3.925-3.893 5.476-6.17 3.728-5.486 2.566-12.82 1.457-19.383-1.109-6.562-1.752-14.113 2.628-19.085 1.386-1.571 3.192-2.75 4.448-4.43 2.798-3.744 2.092-9.511-1.162-12.858-3.254-3.346-8.493-4.272-12.918-2.8a9.313 9.313 0 0 0-4.712 3.238c-2.235 3.207-1.34 7.587-.393 11.4.827 3.31 1.493 7.13.362 10.468-.845 2.483-2.986 3.83-4.805 5.559-5.21 4.87-8.242 11.667-8.403 18.837z"/></g><g><path fill="#30c59b" d="M36.357 255.785c-.642 4.485-1.57 9.006-1.76 13.504v.452c-.01.112-.036.221-.077.325a34.908 34.908 0 0 0-.593 11.226 4.25 4.25 0 0 0 .453 1.745c-.023.19-.05.375-.077.565a9.429 9.429 0 0 1-10.093-3.165c-.905-1.184-1.516-2.568-2.29-3.847-.724-1.189-1.606-2.306-2.059-3.617-.62-1.808-.375-3.765-.498-5.664a14.535 14.535 0 0 0-3.308-8.296c-2.322-2.78-5.883-5.113-6.042-8.73-.158-3.616 3.205-6.568 3.033-10.126-.154-3.137-3.001-5.547-3.585-8.635-.792-4.172 2.716-8.096 2.557-12.337-.213-6.284-7.902-9.86-9.445-15.958-.905-3.594.507-7.31 1.1-10.976.72-4.464.211-9.04-1.471-13.237-.724-1.808-1.661-3.513-2.046-5.425-.384-1.912-.1-4.069 1.308-5.389 1.358-1.248 3.395-1.446 5.15-.945 4.698 1.357 6.993 6.574 8.187 11.302 1.195 4.729 2.155 9.996 5.956 13.06 1.879 1.515 4.232 2.284 6.413 3.314 4.345 2.053 7.82 4.327 8.192 9.218.452 6.22.493 12.582-.665 18.734-.562 2.98-1.358 5.972-1.118 8.992.24 3.02 1.557 5.877 2.416 8.807.095.33.19.664.272.999 1.14 4.651.774 9.358.09 14.104z"/></g><g><path fill="url(#lzytp)" d="M33.718 282a3.918 3.918 0 0 1-.502-1.702 31.625 31.625 0 0 1 .637-10.98c.023-.106.052-.212.08-.318-.171 4.342.374 8.72-.215 13z"/></g><g><path fill="#30c59b" d="M72.248 185.335c-1.258 1.68-3.067 2.859-4.454 4.43-4.388 4.968-3.743 12.523-2.633 19.085 1.11 6.562 2.274 13.897-1.46 19.384-1.553 2.258-3.813 3.974-5.483 6.169a14.985 14.985 0 0 0-3.018 8.535c-.143 4.648 1.88 9.281 1.012 13.847-1.285 6.743-8.183 10.708-11.733 16.57A18.308 18.308 0 0 0 42.178 286a34.505 34.505 0 0 1-6.765-1.847 3.638 3.638 0 0 1-1.576-.962 1.703 1.703 0 0 1-.165-.235 4.279 4.279 0 0 1-.47-1.734 35.21 35.21 0 0 1 .595-11.214c.023-.108.05-.217.076-.325.636-2.795 1.576-5.537 1.863-8.39.152-1.851.116-3.713-.108-5.556.676-4.742 1.039-9.443-.103-14.059-.08-.334-.174-.668-.268-.998.085-.289.183-.578.295-.862 1.124-2.918 3.3-5.347 4.289-8.315 1.302-3.915.376-8.178.412-12.302.058-7.122 3.24-14 8.353-18.859 1.822-1.73 3.967-3.076 4.813-5.56 1.132-3.337.447-7.158-.363-10.468-.953-3.812-1.858-8.192.394-11.399 1.12-1.59 2.883-2.624 4.719-3.238 4.414-1.472 9.683-.546 12.937 2.8 3.255 3.347 3.944 9.136 1.142 12.858z"/></g><g><path fill="#2bd0d0" d="M152.829 114.453s-18.8 2.912-27.497 23.686c-8.697 20.773-4.174 46.51-4.022 48.774.152 2.264 26.648 12.087 34.222 12.087 7.575 0 9.153-7.604 9.153-7.604l-13.385-5.71 40.667-4.706h7.302l-4.022 6.793s7.937.834 13.241 1.024c5.305.19 8.907-10.321 9.501-15.547.595-5.226-23.43-51.098-27.019-53.815-3.588-2.717-13.326-9.356-38.141-4.982z"/></g><g><path fill="url(#lzytq)" d="M175.853 74.925s3.436 1.923 3.127 8.144c-.309 6.22-2.246 15.581-4.201 18.006-1.956 2.425-8.796 3.375-8.796 3.375s3.731 8.818 6.508 11.094c2.777 2.275-2.79 10.659-8.205 7.908-5.415-2.75-11.692-9.66-11.692-9.66s4.515-8.32 2.989-12.699c-1.527-4.38-7.357-19.748-2.99-23.947 4.369-4.198 13.787-10.215 23.26-2.221z"/></g><g opacity=".25"><path fill="#fff" d="M145.89 144L143 180.332l8.825 4.668 7.175-1.262-8.952-11.093L145.889 144z"/></g><g opacity=".25"><path fill="#fff" d="M193 142s11.94 28.79 6.647 39l-4.078-.794z"/></g><g><path fill="url(#lzytr)" d="M160.094 189.697s-4.63 3.85-2.563 6.844c2.066 2.995 4.533 2.909 6.59 1.57 2.057-1.339 6.097-4.517 10.91-3.059 4.814 1.46 5.982 2.387 5.982 2.387s2.536-1.544 1.878-3.092c-.658-1.549-5.692-6.567-7.151-7.217-1.459-.65-7.515 1.348-7.515 1.348s-4.45-1.172-8.13 1.219z"/></g><g><path fill="url(#lzyts)" d="M200.794 181.065s-4.257.506-5.332 3.305c-1.075 2.799-1.462 3.14-1.462 3.14s2.404.46 3.404-.843 2.04-.755 2.04-.755l-.298 1.671s6.531.985 9.482-.073c2.95-1.06 4.217-2.302 4.217-2.302l1.155-2.826s-2.786-2.021-4.888-2.334c-2.102-.313-8.318 1.017-8.318 1.017z"/></g><g><path fill="#25233a" d="M223.406 211s14.829 11.354 13.511 26.712c-1.318 15.358-3.254 38.163-3.254 38.163s-5.98 2.532-9.943 0c-3.963-2.533-6.362-37.185-8.326-40.494-1.963-3.31-13.774-18.229-26.394-19.513z"/></g><g><path fill="#3f3d56" d="M149 222.16s7.041 6.728 19.593 8.84c12.551 2.114 18.402 3.877 22.238 14.692 3.836 10.816 7.516 34.093 8.72 36.695 1.204 2.602 6.325 1.274 6.325 1.274s2.896-3.328 2.896-21.837c0-25.803 1.79-31.092-4.66-37.574-6.45-6.483-12.319-8.25-12.319-8.25z"/></g><g><path fill="#25233a" d="M199 284l1.235 9.465h2.312s14.894.791 15.36.45c.468-.342-.716-7.496-6.359-7.294-5.643.203-6.013-1.349-6.013-1.349z"/></g><g><path fill="#25233a" d="M225 276.77l2.345 9.23 25.625-3.474s.902-6.063-7.216-5.461c-2.142.155-3.738 1.643-6.313 1.657-2.576.013-5.042-1.03-6.341-2.722z"/></g><g><path fill="#2bd0d0" d="M313.11 158.805l-96.652 5.19a4.246 4.246 0 0 1-4.458-4.019V91.1a5.107 5.107 0 0 1 4.993-5.108l96.257-1.991a4.65 4.65 0 0 1 3.32 1.3 4.672 4.672 0 0 1 1.43 3.272v65.065a5.175 5.175 0 0 1-4.89 5.167z"/></g><g><path fill="#2bd0d0" d="M319.11 158.805l-96.656 5.19a4.246 4.246 0 0 1-4.454-4.023V91.1a5.098 5.098 0 0 1 4.989-5.108L319.259 84A4.66 4.66 0 0 1 324 88.569v65.07a5.175 5.175 0 0 1-4.89 5.166z"/></g><g><path fill="url(#lzytt)" d="M319.11 158.805l-96.656 5.19a4.246 4.246 0 0 1-4.454-4.023V91.1a5.098 5.098 0 0 1 4.989-5.108L319.259 84A4.66 4.66 0 0 1 324 88.569v65.07a5.175 5.175 0 0 1-4.89 5.166z"/></g><g><path fill="#3a3054" d="M289.845 185.377L265.134 188s-7.525-1.514-7.118-2.623c.407-1.108 8.276-2.176 8.276-2.176V138.52c-.068-.099-1.104-1.415-3.941-2.253a14.3 14.3 0 0 0-1.674-.387 4.947 4.947 0 0 1-1.403-.424c-1.688-.87.176-2.383 2.796-2.451.41-.014.821.01 1.227.072h19.005s7.195 2.019 7.543 12.094c.349 10.076 0 40.207 0 40.207z"/></g><g><path fill="#51466b" d="M270 185.472L265.286 188s-7.686-1.514-7.27-2.623c.416-1.108 8.467-2.176 8.467-2.176v-44.685c-.097-.104-1.276-1.289-4.025-2.253a20.856 20.856 0 0 0-3.143-.812c-1.724-.87.18-2.383 2.856-2.451 2.279.302 6.766 2.735 7.057 4.123.291 1.388.772 48.349.772 48.349z"/></g><g><path fill="url(#lzytu)" d="M179 279c-.881 1.001-1.29 1.37-.77.547"/></g></g></g></svg>